<?xml version="1.0" standalone="no"?>
<!DOCTYPE svg PUBLIC "-//W3C//DTD SVG 20010904//EN"
 "http://www.w3.org/TR/2001/REC-SVG-20010904/DTD/svg10.dtd">
<svg version="1.0" xmlns="http://www.w3.org/2000/svg"
 width="654.000000pt" height="183.000000pt" viewBox="0 0 654.000000 183.000000"
 preserveAspectRatio="xMidYMid meet">

<g transform="translate(0.000000,183.000000) scale(0.100000,-0.100000)"
fill="currentColor" stroke="none">
<path d="M3281 1745 c-155 -73 -238 -219 -229 -408 3 -82 8 -100 42 -169 83
-168 252 -286 466 -324 97 -17 170 -17 300 1 126 17 197 35 441 114 227 73
313 96 420 112 149 22 374 -1 503 -50 l29 -12 -64 -63 c-63 -61 -65 -63 -131
-70 -88 -9 -214 -46 -352 -103 -367 -152 -497 -182 -816 -190 -232 -6 -353 7
-548 57 -203 53 -377 133 -707 325 -311 182 -555 286 -749 320 -104 18 -329
20 -443 4 -318 -44 -688 -203 -1078 -462 -157 -104 -265 -191 -243 -195 9 -2
137 57 284 131 437 218 643 299 900 353 112 24 152 27 309 28 148 0 198 -4
282 -22 198 -43 360 -112 710 -304 318 -175 451 -233 653 -287 342 -91 708
-93 1044 -6 150 38 214 62 416 150 139 61 325 123 337 112 3 -3 -5 -32 -18
-64 -33 -85 -33 -218 1 -288 68 -140 238 -219 365 -171 62 24 120 91 141 162
57 199 -77 395 -298 438 -32 6 -58 15 -58 21 0 10 34 45 87 88 20 18 23 17 75
-9 146 -73 323 -222 404 -340 41 -59 59 -74 25 -22 -89 141 -215 269 -353 358
l-90 59 68 34 c119 59 173 71 329 72 77 0 152 -3 166 -7 l26 -8 -19 -67 c-56
-200 -22 -400 98 -576 88 -128 238 -238 383 -281 75 -22 87 -19 22 6 -176 68
-338 244 -396 435 -36 116 -27 269 24 386 l21 48 57 -37 c72 -45 174 -143 214
-206 37 -58 49 -63 18 -9 -35 62 -136 168 -210 220 l-68 48 33 49 c49 71 208
222 299 283 42 28 77 56 77 62 0 17 -53 30 -95 24 -123 -19 -248 -85 -324
-171 -31 -36 -112 -157 -125 -190 -1 -1 -32 5 -71 13 -85 18 -251 12 -340 -12
-33 -8 -98 -34 -145 -56 l-85 -40 -90 35 c-122 47 -245 69 -385 69 -145 -1
-256 -19 -495 -83 -449 -121 -602 -135 -793 -75 -195 61 -313 192 -320 355 -9
187 124 334 273 300 98 -22 159 -126 127 -218 -12 -36 -6 -45 20 -31 27 15 58
86 57 134 0 93 -50 169 -140 214 -83 42 -186 44 -268 6z m2004 -976 c130 -40
218 -165 201 -286 -22 -160 -165 -219 -306 -124 -116 78 -148 233 -80 389 19
41 20 42 68 42 28 0 80 -9 117 -21z"/>
</g>
</svg>
